<svg width="166" height="42" viewBox="0 0 166 42" fill="none" xmlns="http://www.w3.org/2000/svg">
<path d="M77.9454 7.16952C79.7911 7.16952 81.2267 5.73181 81.2267 3.88334C81.2267 2.03487 79.7911 0.597168 77.9454 0.597168C76.0996 0.597168 74.6641 2.03487 74.6641 3.88334C74.6641 5.73181 76.0996 7.16952 77.9454 7.16952ZM80.8165 10.2503H75.2793V32.0212H80.8165V10.2503Z" fill="white"/>
<path d="M115.064 10.2493H109.526V22.367C109.526 28.5286 113.628 32.4309 119.78 32.6363C125.933 32.6363 130.035 28.5286 130.035 22.5724V10.2493H124.497V22.1616C124.497 25.2424 122.652 27.5017 119.78 27.5017C117.114 27.5017 115.064 25.4478 115.064 22.1616V10.2493Z" fill="white"/>
<path d="M149.928 32.0218H155.465V10.2509H149.928V12.5102C148.287 10.6617 146.236 9.63477 143.365 9.63477C137.418 9.63477 132.906 14.564 132.906 21.1364C132.906 27.9141 137.623 32.638 143.365 32.638C146.236 32.638 148.492 31.4057 149.928 29.5572V32.0218ZM144.185 27.5033C140.904 27.5033 138.443 24.6279 138.443 21.1364C138.443 17.6448 140.904 14.7694 144.185 14.7694C147.467 14.7694 149.928 17.4394 149.928 21.1364C149.928 24.6279 147.467 27.5033 144.185 27.5033Z" fill="white"/>
<path d="M164.696 0.802002H159.159V32.226H164.696V0.802002Z" fill="white"/>
<path d="M0.834961 32.0212H11.4992C21.5482 32.0212 28.9312 25.4489 28.9312 16.4119C28.9312 7.16951 21.5482 0.597168 11.2941 0.597168H0.834961V32.0212ZM11.0891 6.55336C17.8568 6.55336 22.1635 10.4557 22.1635 16.4119C22.1635 22.3681 17.6517 26.2704 11.0891 26.2704H6.98742V6.55336H11.0891Z" fill="white"/>
<path d="M60.9215 16.2066C60.9215 14.9742 62.152 14.1527 63.9977 14.1527C66.0486 14.1527 67.8943 14.7689 69.3299 16.6173L72.4061 13.3312C70.7655 11.0719 67.6892 9.8396 63.7927 9.8396C58.2554 9.8396 55.3843 12.9204 55.3843 16.4119C55.3843 24.2166 67.074 22.3681 67.074 26.2705C67.074 27.7082 66.0486 28.5297 63.7927 28.5297C61.1266 28.5297 59.0758 27.7082 57.4351 25.8597L54.3589 29.3513C56.2046 31.6105 59.2809 33.0482 63.5876 33.0482C69.535 33.0482 72.6112 29.9674 72.6112 26.2705C72.6112 17.6443 60.9215 19.9035 60.9215 16.2066Z" fill="white"/>
<path d="M42.8755 32.638C46.567 32.638 49.6432 31.2003 51.2839 29.1464L48.4128 25.4495C47.1823 26.6818 45.3365 27.7087 43.0806 27.7087C39.7993 27.7087 37.3383 25.4495 36.9282 22.5741H53.1296C53.1296 22.1633 53.3347 21.3418 53.3347 20.7256C53.3347 14.3586 48.6178 9.63477 42.4654 9.63477C36.1078 9.63477 31.3909 14.7694 31.3909 21.1364C31.1859 27.5033 36.1078 32.638 42.8755 32.638ZM42.2603 14.3586C44.9264 14.3586 46.7721 16.0017 47.3873 19.0825H36.9282C37.7485 16.2071 39.5942 14.3586 42.2603 14.3586Z" fill="white"/>
<path d="M87.9942 34.2816L85.1231 38.5947C87.1739 40.4432 90.6603 41.4701 94.5568 41.4701C99.889 41.4701 105.836 39.0055 105.836 30.3793V10.0461H100.299V12.0999C98.6585 10.4569 96.6077 9.42993 93.7365 9.42993C88.1993 9.42993 83.6875 13.9484 83.6875 20.3154C83.6875 26.8877 88.1993 31.4062 93.7365 31.4062C96.6077 31.4062 98.8636 30.3793 100.299 28.5308V30.3793C100.299 34.0762 98.0432 36.1301 94.3518 36.1301C91.2755 36.5409 89.0196 35.1032 87.9942 34.2816ZM94.7619 26.477C91.4806 26.477 89.2247 24.0123 89.2247 20.7262C89.2247 17.44 91.6857 14.9753 94.7619 14.9753C98.0432 14.9753 100.299 17.6454 100.299 20.7262C100.299 23.8069 98.0432 26.477 94.7619 26.477Z" fill="white"/>
</svg>
