<svg xmlns="http://www.w3.org/2000/svg" fill="none" viewBox="0 0 856 198" height="198" width="856">
<g clip-path="url(#clip0_3103_4859)">
<path fill="#245644" d="M0 195.055H26.3329L26.3329 2.94434L0 2.94434L0 195.055Z"></path>
<path fill="#245644" d="M144.81 2.94434L144.81 139.437L89.839 2.94434L61.7668 2.94434L61.7668 195.055H87.2503L87.2503 59.7646L142.222 195.055L170.294 195.055L170.294 2.94434L144.81 2.94434Z"></path>
<path fill="#245644" d="M253.904 198V172.825C238.735 170.502 230.726 159.346 230.726 141.47L230.726 56.8203C230.726 38.9447 238.735 27.5392 253.904 25.1751V0C223 2.65438 204.353 23.1429 204.353 54.788L204.353 143.253C204.353 174.899 222.677 195.387 253.904 198.041V198ZM267.94 0V25.1751C283.109 27.4977 291.118 38.6544 291.118 57.4009V77.8894H317.451V59.1428C317.451 22.5207 300.543 2.32258 267.9 0L267.94 0ZM267.94 172.783V197.958C300.583 195.636 317.491 175.687 317.491 139.106V120.65H291.158V140.558C291.158 159.304 283.149 170.419 267.98 172.783H267.94Z"></path>
<path fill="#245644" d="M418.535 2.94434L387.307 2.94434L338.929 190.99V195.096H365.829L376.143 152.336L429.416 152.336L439.73 195.096H466.63V190.99L418.535 2.94434ZM382.17 127.99L402.8 41.889L423.429 127.99L382.211 127.99H382.17Z"></path>
<path fill="#245644" d="M491.264 195.055H517.88V114.801L549.39 114.801C584.622 114.801 603.229 96.6356 603.229 61.7969V55.9489C603.229 21.6909 584.339 2.94434 549.39 2.94434L491.264 2.94434L491.264 195.055ZM517.88 90.207V27.8291L547.368 27.8291C567.107 27.8291 576.856 37.4927 576.856 55.9489V61.7969C576.856 81.995 565.691 90.207 547.368 90.207L517.88 90.207Z"></path>
<path fill="#245644" d="M655.207 195.055H681.54V27.8291L723.325 27.8291V2.94434L613.382 2.94434V27.8291L655.167 27.8291V195.055H655.207Z"></path>
<path fill="#245644" d="M792.413 198V172.825C777.81 170.17 769.518 159.055 769.518 141.47V56.8203C769.518 38.9447 777.81 27.8295 792.413 25.1751V0C761.792 2.65438 743.185 23.1429 743.185 54.788V143.253C743.185 174.899 761.509 195.387 792.413 198.041V198ZM806.732 172.825V198C837.353 195.346 855.96 174.857 855.96 143.212V54.788C855.96 23.4332 837.353 2.65438 806.732 0V25.1751C821.334 27.8295 829.627 38.9447 829.627 56.8203V141.47C829.627 159.055 821.334 170.17 806.732 172.825Z"></path>
</g>
<defs>
<clipPath id="clip0_3103_4859">
<rect fill="white" height="198" width="856"></rect>
</clipPath>
</defs>
</svg>
