<svg xmlns="http://www.w3.org/2000/svg" viewBox="0 0 32 32"><rect width="32" height="32" rx="7" fill="#0E0E0C"/><path d="M10.6 21.2q-.7 0-1.4-.2-.8-.2-1.4-.6l.4-1.4q.6.4 1.2.5.7.2 1.3.2.8 0 1.2-.3.4-.3.4-.8 0-.3-.2-.6t-.6-.4l-1.8-.6q-1-.3-1.5-.9-.5-.6-.5-1.5 0-.8.4-1.3.4-.6 1.1-.9.7-.3 1.7-.3.7 0 1.4.2.7.2 1.2.5l-.4 1.4q-1.1-.6-2.2-.6-.7 0-1.1.3-.4.3-.4.8 0 .4.2.6.3.3.8.4l1.8.6q1 .3 1.5.9.5.6.5 1.4 0 1.2-.9 1.9-.8.6-2.3.6Zm10.4 0q-1.5 0-2.8-.6-1.2-.7-1.9-1.8-.7-1.2-.7-2.8 0-1.6.7-2.8.7-1.2 1.9-1.8 1.3-.7 2.8-.7.8 0 1.6.2t1.3.5l-.4 1.5q-1.2-.7-2.5-.7-1.6 0-2.5.9-.9.9-.9 2.9 0 2 .9 3 .9.9 2.5.9 1.3 0 2.5-.7l.4 1.5q-.5.3-1.3.5-.8.2-1.6.2Z" fill="#E8B84B"/></svg>
