<svg fill="#00A1E0" role="img" viewBox="0 0 24 24" xmlns="http://www.w3.org/2000/svg"><title>Salesforce</title><path d="M10.006 5.15a4.704 4.704 0 0 1 3.494-1.555c1.747 0 3.26.952 4.07 2.365a5.31 5.31 0 0 1 2.137-.449C22.07 5.511 24 7.455 24 9.853a4.368 4.368 0 0 1-3.088 4.17c.07.333.108.68.108 1.035 0 2.762-2.238 5-5 5a4.988 4.988 0 0 1-3.482-1.42 4.41 4.41 0 0 1-3.268 1.458 4.393 4.393 0 0 1-3.654-1.96 4.725 4.725 0 0 1-1.777.346C1.604 18.482 0 16.85 0 14.855c0-1.148.543-2.168 1.384-2.824A4.894 4.894 0 0 1 1.11 10.7c0-2.693 2.182-4.876 4.876-4.876.97 0 1.874.284 2.632.77a4.679 4.679 0 0 1 1.388-1.444z"/></svg>
